<?xml version="1.0" encoding="utf-8"?>
<!-- Generator: Adobe Illustrator 16.0.0, SVG Export Plug-In . SVG Version: 6.00 Build 0)  -->
<!DOCTYPE svg PUBLIC "-//W3C//DTD SVG 1.1//EN" "http://www.w3.org/Graphics/SVG/1.1/DTD/svg11.dtd">
<svg version="1.1" xmlns="http://www.w3.org/2000/svg" xmlns:xlink="http://www.w3.org/1999/xlink" x="0px" y="0px"
	 width="197.991px" height="200.99px" viewBox="0 0 197.991 200.99" enable-background="new 0 0 197.991 200.99"
	 xml:space="preserve">
<g id="Layer_1">
	<path fill="none" stroke="#9A1C1F" stroke-width="1.9515" stroke-miterlimit="10" d="M61.667,122.908
		c-8.6-13.562-9.748-29.725-4.512-43.686"/>
	<path fill="none" stroke="#9A1C1F" stroke-width="1.9515" stroke-miterlimit="10" d="M57.155,79.222
		C59.56,72.808,63.308,66.86,68.3,61.844"/>
	<path fill="none" stroke="#9A1C1F" stroke-width="1.8577" stroke-miterlimit="10" d="M129.036,107.081
		c-0.922,2.339-2.164,4.596-3.738,6.71c-5.578,7.477-14.076,11.491-22.734,11.635"/>
	<path fill="none" stroke="#9A1C1F" stroke-width="7.6157" stroke-miterlimit="10" d="M73.739,90.792
		c0.815-4.073,2.525-8.031,5.174-11.582c9.549-12.808,27.674-15.45,40.479-5.901c10.696,7.972,14.304,21.926,9.644,33.771"/>
	<path fill="none" stroke="#9A1C1F" stroke-width="2.1585" stroke-miterlimit="10" d="M183.292,85.542
		c3.383,20.632-1.109,42.554-14.27,60.876c-0.951,1.323-1.934,2.608-2.945,3.857"/>
	<path fill="none" stroke="#9A1C1F" stroke-width="2.1585" stroke-miterlimit="10" d="M47.282,38.684
		c27.906-25.79,70.996-29.314,103.059-6.279c18.32,13.163,29.572,32.503,32.951,53.137"/>
</g>
<g id="Layer_2" display="none">
	<g display="inline">
		<linearGradient id="SVGID_1_" gradientUnits="userSpaceOnUse" x1="67.4023" y1="136.2544" x2="161.4009" y2="136.2544">
			<stop  offset="0" style="stop-color:#FFFFFF"/>
			<stop  offset="0.106" style="stop-color:#999B9E"/>
			<stop  offset="0.1403" style="stop-color:#9D9FA2"/>
			<stop  offset="0.1834" style="stop-color:#A9ACAE"/>
			<stop  offset="0.2312" style="stop-color:#BFC0C3"/>
			<stop  offset="0.2819" style="stop-color:#DCDDDE"/>
			<stop  offset="0.2973" style="stop-color:#E6E7E8"/>
			<stop  offset="0.4082" style="stop-color:#C2C4C6"/>
			<stop  offset="0.6054" style="stop-color:#909294"/>
			<stop  offset="0.6522" style="stop-color:#949698"/>
			<stop  offset="0.7095" style="stop-color:#9FA1A4"/>
			<stop  offset="0.7723" style="stop-color:#B3B5B7"/>
			<stop  offset="0.8386" style="stop-color:#D0D1D3"/>
			<stop  offset="0.8752" style="stop-color:#E2E3E4"/>
		</linearGradient>
		<path fill="none" stroke="url(#SVGID_1_)" stroke-width="1.9515" stroke-miterlimit="10" d="M160.474,115.212
			c-4.189,12.8-12.684,24.276-24.945,32.054c-21.434,13.591-48.188,11.938-67.553-2.113"/>
		<linearGradient id="SVGID_2_" gradientUnits="userSpaceOnUse" x1="153.2881" y1="89.6294" x2="164.4473" y2="89.6294">
			<stop  offset="0" style="stop-color:#FFFFFF"/>
			<stop  offset="0.4082" style="stop-color:#C2C4C6"/>
			<stop  offset="0.8752" style="stop-color:#E2E3E4"/>
		</linearGradient>
		<path fill="none" stroke="url(#SVGID_2_)" stroke-width="1.9515" stroke-miterlimit="10" d="M154.112,64.266
			c10.014,15.789,11.752,34.462,6.361,50.947"/>
		<linearGradient id="SVGID_3_" gradientUnits="userSpaceOnUse" x1="125.5483" y1="87.6401" x2="142.7632" y2="87.6401">
			<stop  offset="0" style="stop-color:#FFFFFF"/>
			<stop  offset="0.106" style="stop-color:#999B9E"/>
			<stop  offset="0.1403" style="stop-color:#9D9FA2"/>
			<stop  offset="0.1834" style="stop-color:#A9ACAE"/>
			<stop  offset="0.2312" style="stop-color:#BFC0C3"/>
			<stop  offset="0.2819" style="stop-color:#DCDDDE"/>
			<stop  offset="0.2973" style="stop-color:#E6E7E8"/>
			<stop  offset="0.4082" style="stop-color:#C2C4C6"/>
			<stop  offset="0.6054" style="stop-color:#909294"/>
			<stop  offset="0.6522" style="stop-color:#949698"/>
			<stop  offset="0.7095" style="stop-color:#9FA1A4"/>
			<stop  offset="0.7723" style="stop-color:#B3B5B7"/>
			<stop  offset="0.8386" style="stop-color:#D0D1D3"/>
			<stop  offset="0.8752" style="stop-color:#E2E3E4"/>
		</linearGradient>
		<path fill="none" stroke="url(#SVGID_3_)" stroke-width="1.9515" stroke-miterlimit="10" d="M126.132,65.642
			c14.09,10.506,19.035,28.73,13.34,44.445"/>
		<linearGradient id="SVGID_4_" gradientUnits="userSpaceOnUse" x1="19.5894" y1="110.1147" x2="171.5674" y2="110.1147">
			<stop  offset="0" style="stop-color:#FFFFFF"/>
			<stop  offset="0.0155" style="stop-color:#E9EAEB"/>
			<stop  offset="0.052" style="stop-color:#C2C4C6"/>
			<stop  offset="0.0886" style="stop-color:#A3A5A8"/>
			<stop  offset="0.1246" style="stop-color:#8C8E91"/>
			<stop  offset="0.1598" style="stop-color:#7C7E80"/>
			<stop  offset="0.194" style="stop-color:#727476"/>
			<stop  offset="0.2259" style="stop-color:#6F7173"/>
			<stop  offset="0.2609" style="stop-color:#76787A"/>
			<stop  offset="0.3186" style="stop-color:#898B8D"/>
			<stop  offset="0.3915" style="stop-color:#A8AAAC"/>
			<stop  offset="0.4423" style="stop-color:#C2C4C6"/>
			<stop  offset="0.5161" style="stop-color:#B2B4B6"/>
			<stop  offset="0.666" style="stop-color:#8A8C8F"/>
			<stop  offset="0.7219" style="stop-color:#7B7D7F"/>
			<stop  offset="0.7624" style="stop-color:#838588"/>
			<stop  offset="0.8336" style="stop-color:#999B9E"/>
			<stop  offset="0.9262" style="stop-color:#BFC1C3"/>
			<stop  offset="1" style="stop-color:#E2E3E4"/>
		</linearGradient>
		<path fill="url(#SVGID_4_)" d="M44.651,35.807l5,5.5c0,0-39.654,37.915-19,86.727c0,0,14,41.273,64.5,48.023
			c0,0,41.18,4.396,68.32-28.25l5.43,5c0,0-34.942,50.31-100.602,24c0,0-42.969-14.023-50.482-66.655
			C17.817,110.152,9.331,69.117,44.651,35.807z"/>
		<linearGradient id="SVGID_5_" gradientUnits="userSpaceOnUse" x1="65.4111" y1="92.3022" x2="156.4429" y2="92.3022">
			<stop  offset="0" style="stop-color:#FFFFFF"/>
			<stop  offset="0.0213" style="stop-color:#E2E3E4"/>
			<stop  offset="0.0592" style="stop-color:#BABCBE"/>
			<stop  offset="0.0927" style="stop-color:#9EA0A3"/>
			<stop  offset="0.12" style="stop-color:#8E9092"/>
			<stop  offset="0.1378" style="stop-color:#888A8C"/>
			<stop  offset="0.1733" style="stop-color:#8C8E90"/>
			<stop  offset="0.2178" style="stop-color:#989A9C"/>
			<stop  offset="0.2671" style="stop-color:#ACAEB0"/>
			<stop  offset="0.3194" style="stop-color:#C9CBCC"/>
			<stop  offset="0.363" style="stop-color:#E6E7E8"/>
			<stop  offset="0.4061" style="stop-color:#CDCED0"/>
			<stop  offset="0.4699" style="stop-color:#ACAEB1"/>
			<stop  offset="0.5284" style="stop-color:#96989A"/>
			<stop  offset="0.5793" style="stop-color:#898B8D"/>
			<stop  offset="0.6168" style="stop-color:#848689"/>
			<stop  offset="0.6596" style="stop-color:#949799"/>
			<stop  offset="0.7481" style="stop-color:#C2C3C6"/>
			<stop  offset="0.8046" style="stop-color:#E2E3E4"/>
			<stop  offset="1" style="stop-color:#939597"/>
		</linearGradient>
		<path fill="url(#SVGID_5_)" d="M65.411,59.115l5.918,5.583c0,0,16.582-18.916,43.958-11.916c0,0,37.042,9.666,32.71,50.333
			c0,0-1.336,19.417-20.667,31.667l4.5,6.5c0,0,15.415-8.083,21.667-27.915c0,0,9.163-21.502-4.833-44.419
			c0,0-9.919-20.334-36.5-24.833C112.164,44.116,86.411,38.115,65.411,59.115z"/>
		<linearGradient id="SVGID_6_" gradientUnits="userSpaceOnUse" x1="39.0601" y1="114.6157" x2="68.7533" y2="114.6157">
			<stop  offset="0" style="stop-color:#8A8C8E"/>
			<stop  offset="0.2948" style="stop-color:#E6E7E8"/>
			<stop  offset="0.3596" style="stop-color:#C6C8CA"/>
			<stop  offset="0.4239" style="stop-color:#AEB0B2"/>
			<stop  offset="0.4869" style="stop-color:#9D9FA1"/>
			<stop  offset="0.5481" style="stop-color:#939598"/>
			<stop  offset="0.6054" style="stop-color:#909294"/>
			<stop  offset="0.6522" style="stop-color:#949698"/>
			<stop  offset="0.7095" style="stop-color:#9FA1A4"/>
			<stop  offset="0.7723" style="stop-color:#B3B5B7"/>
			<stop  offset="0.8386" style="stop-color:#D0D1D3"/>
			<stop  offset="0.8752" style="stop-color:#E2E3E4"/>
		</linearGradient>
		<path fill="url(#SVGID_6_)" d="M40.995,80.45l7.666,2.167c0,0-10.5,33.637,21.5,59.498l-4,6.667
			C66.161,148.781,30.494,125.426,40.995,80.45z"/>
		<linearGradient id="SVGID_7_" gradientUnits="userSpaceOnUse" x1="60.9971" y1="122.2266" x2="143.1631" y2="122.2266">
			<stop  offset="0" style="stop-color:#FFFFFF"/>
			<stop  offset="0.0204" style="stop-color:#DEDFE1"/>
			<stop  offset="0.0483" style="stop-color:#BCBEC0"/>
			<stop  offset="0.0757" style="stop-color:#A2A4A7"/>
			<stop  offset="0.1018" style="stop-color:#909295"/>
			<stop  offset="0.1264" style="stop-color:#86888A"/>
			<stop  offset="0.1477" style="stop-color:#828487"/>
			<stop  offset="0.1833" style="stop-color:#8C8E91"/>
			<stop  offset="0.2497" style="stop-color:#A7A9AC"/>
			<stop  offset="0.3391" style="stop-color:#D6D7D9"/>
			<stop  offset="0.3675" style="stop-color:#E6E7E8"/>
			<stop  offset="0.5044" style="stop-color:#C2C4C6"/>
			<stop  offset="0.6511" style="stop-color:#909294"/>
			<stop  offset="0.69" style="stop-color:#949698"/>
			<stop  offset="0.7376" style="stop-color:#9FA1A4"/>
			<stop  offset="0.7897" style="stop-color:#B3B5B7"/>
			<stop  offset="0.8448" style="stop-color:#D0D1D3"/>
			<stop  offset="0.8752" style="stop-color:#E2E3E4"/>
		</linearGradient>
		<path fill="url(#SVGID_7_)" d="M69.163,104.95l-8.166,2.131c0,0,7.999,35.535,46.832,32.202c0,0,25.668-1.666,35.334-27.833
			l-7.666-2.833c0,0-9.365,25.5-36.5,22.833C98.997,131.45,75.869,130.496,69.163,104.95z"/>
	</g>
</g>
</svg>
