<?xml version="1.0" encoding="utf-8"?>
<!-- Generator: Adobe Illustrator 16.0.0, SVG Export Plug-In . SVG Version: 6.00 Build 0)  -->
<!DOCTYPE svg PUBLIC "-//W3C//DTD SVG 1.1//EN" "http://www.w3.org/Graphics/SVG/1.1/DTD/svg11.dtd">
<svg version="1.1" xmlns="http://www.w3.org/2000/svg" xmlns:xlink="http://www.w3.org/1999/xlink" x="0px" y="0px"
	 width="197.992px" height="200.99px" viewBox="0 0 197.992 200.99" enable-background="new 0 0 197.992 200.99"
	 xml:space="preserve">
<g id="Layer_1" display="none">
	<g id="Layer_1_1_">
		<path display="inline" fill="none" stroke="#9A1C1F" stroke-width="1.9515" stroke-miterlimit="10" d="M61.667,122.908
			c-8.6-13.562-9.748-29.725-4.512-43.686"/>
		<path display="inline" fill="none" stroke="#9A1C1F" stroke-width="1.9515" stroke-miterlimit="10" d="M57.155,79.222
			C59.56,72.808,63.308,66.86,68.3,61.844"/>
		<path display="inline" fill="none" stroke="#9A1C1F" stroke-width="1.8577" stroke-miterlimit="10" d="M129.037,107.081
			c-0.923,2.339-2.164,4.596-3.738,6.71c-5.578,7.478-14.076,11.491-22.734,11.635"/>
		<path display="inline" fill="none" stroke="#9A1C1F" stroke-width="7.6157" stroke-miterlimit="10" d="M73.739,90.792
			c0.815-4.073,2.525-8.031,5.174-11.582c9.549-12.808,27.674-15.45,40.479-5.901c10.695,7.972,14.304,21.926,9.645,33.771"/>
		<path display="inline" fill="none" stroke="#9A1C1F" stroke-width="2.1585" stroke-miterlimit="10" d="M183.292,85.542
			c3.383,20.632-1.109,42.555-14.271,60.876c-0.951,1.323-1.935,2.608-2.944,3.856"/>
		<path display="inline" fill="none" stroke="#9A1C1F" stroke-width="2.1585" stroke-miterlimit="10" d="M47.282,38.684
			c27.906-25.79,70.996-29.314,103.059-6.279c18.32,13.163,29.572,32.503,32.951,53.137"/>
	</g>
	<g id="Layer_2" display="inline">
		<g>
			
				<linearGradient id="SVGID_1_" gradientUnits="userSpaceOnUse" x1="67.4028" y1="65.7363" x2="161.4019" y2="65.7363" gradientTransform="matrix(1 0 0 -1 0 201.9902)">
				<stop  offset="0" style="stop-color:#FFFFFF"/>
				<stop  offset="0.106" style="stop-color:#999B9E"/>
				<stop  offset="0.1403" style="stop-color:#9D9FA2"/>
				<stop  offset="0.1834" style="stop-color:#A9ACAE"/>
				<stop  offset="0.2312" style="stop-color:#BFC0C3"/>
				<stop  offset="0.2819" style="stop-color:#DCDDDE"/>
				<stop  offset="0.2973" style="stop-color:#E6E7E8"/>
				<stop  offset="0.4082" style="stop-color:#C2C4C6"/>
				<stop  offset="0.6054" style="stop-color:#909294"/>
				<stop  offset="0.6522" style="stop-color:#949698"/>
				<stop  offset="0.7095" style="stop-color:#9FA1A4"/>
				<stop  offset="0.7723" style="stop-color:#B3B5B7"/>
				<stop  offset="0.8386" style="stop-color:#D0D1D3"/>
				<stop  offset="0.8752" style="stop-color:#E2E3E4"/>
			</linearGradient>
			<path fill="none" stroke="url(#SVGID_1_)" stroke-width="1.9515" stroke-miterlimit="10" d="M160.474,115.212
				c-4.189,12.8-12.684,24.275-24.945,32.055c-21.434,13.59-48.188,11.938-67.553-2.113"/>
			
				<linearGradient id="SVGID_2_" gradientUnits="userSpaceOnUse" x1="153.2876" y1="112.3604" x2="164.4468" y2="112.3604" gradientTransform="matrix(1 0 0 -1 0 201.9902)">
				<stop  offset="0" style="stop-color:#FFFFFF"/>
				<stop  offset="0.4082" style="stop-color:#C2C4C6"/>
				<stop  offset="0.8752" style="stop-color:#E2E3E4"/>
			</linearGradient>
			<path fill="none" stroke="url(#SVGID_2_)" stroke-width="1.9515" stroke-miterlimit="10" d="M154.112,64.266
				c10.015,15.789,11.752,34.462,6.361,50.947"/>
			
				<linearGradient id="SVGID_3_" gradientUnits="userSpaceOnUse" x1="125.5493" y1="114.3506" x2="142.7642" y2="114.3506" gradientTransform="matrix(1 0 0 -1 0 201.9902)">
				<stop  offset="0" style="stop-color:#FFFFFF"/>
				<stop  offset="0.106" style="stop-color:#999B9E"/>
				<stop  offset="0.1403" style="stop-color:#9D9FA2"/>
				<stop  offset="0.1834" style="stop-color:#A9ACAE"/>
				<stop  offset="0.2312" style="stop-color:#BFC0C3"/>
				<stop  offset="0.2819" style="stop-color:#DCDDDE"/>
				<stop  offset="0.2973" style="stop-color:#E6E7E8"/>
				<stop  offset="0.4082" style="stop-color:#C2C4C6"/>
				<stop  offset="0.6054" style="stop-color:#909294"/>
				<stop  offset="0.6522" style="stop-color:#949698"/>
				<stop  offset="0.7095" style="stop-color:#9FA1A4"/>
				<stop  offset="0.7723" style="stop-color:#B3B5B7"/>
				<stop  offset="0.8386" style="stop-color:#D0D1D3"/>
				<stop  offset="0.8752" style="stop-color:#E2E3E4"/>
			</linearGradient>
			<path fill="none" stroke="url(#SVGID_3_)" stroke-width="1.9515" stroke-miterlimit="10" d="M126.132,65.642
				c14.09,10.506,19.035,28.73,13.34,44.445"/>
			
				<linearGradient id="SVGID_4_" gradientUnits="userSpaceOnUse" x1="19.5898" y1="91.875" x2="171.5674" y2="91.875" gradientTransform="matrix(1 0 0 -1 0 201.9902)">
				<stop  offset="0" style="stop-color:#FFFFFF"/>
				<stop  offset="0.0155" style="stop-color:#E9EAEB"/>
				<stop  offset="0.052" style="stop-color:#C2C4C6"/>
				<stop  offset="0.0886" style="stop-color:#A3A5A8"/>
				<stop  offset="0.1246" style="stop-color:#8C8E91"/>
				<stop  offset="0.1598" style="stop-color:#7C7E80"/>
				<stop  offset="0.194" style="stop-color:#727476"/>
				<stop  offset="0.2259" style="stop-color:#6F7173"/>
				<stop  offset="0.2609" style="stop-color:#76787A"/>
				<stop  offset="0.3186" style="stop-color:#898B8D"/>
				<stop  offset="0.3915" style="stop-color:#A8AAAC"/>
				<stop  offset="0.4423" style="stop-color:#C2C4C6"/>
				<stop  offset="0.5161" style="stop-color:#B2B4B6"/>
				<stop  offset="0.666" style="stop-color:#8A8C8F"/>
				<stop  offset="0.7219" style="stop-color:#7B7D7F"/>
				<stop  offset="0.7624" style="stop-color:#838588"/>
				<stop  offset="0.8336" style="stop-color:#999B9E"/>
				<stop  offset="0.9262" style="stop-color:#BFC1C3"/>
				<stop  offset="1" style="stop-color:#E2E3E4"/>
			</linearGradient>
			<path fill="url(#SVGID_4_)" d="M44.651,35.807l5,5.5c0,0-39.654,37.915-19,86.727c0,0,14,41.273,64.5,48.023
				c0,0,41.181,4.396,68.32-28.25l5.43,5c0,0-34.942,50.31-100.602,24c0,0-42.969-14.023-50.482-66.656
				C17.817,110.151,9.331,69.117,44.651,35.807z"/>
			
				<linearGradient id="SVGID_5_" gradientUnits="userSpaceOnUse" x1="65.4111" y1="109.6885" x2="156.4429" y2="109.6885" gradientTransform="matrix(1 0 0 -1 0 201.9902)">
				<stop  offset="0" style="stop-color:#FFFFFF"/>
				<stop  offset="0.0213" style="stop-color:#E2E3E4"/>
				<stop  offset="0.0592" style="stop-color:#BABCBE"/>
				<stop  offset="0.0927" style="stop-color:#9EA0A3"/>
				<stop  offset="0.12" style="stop-color:#8E9092"/>
				<stop  offset="0.1378" style="stop-color:#888A8C"/>
				<stop  offset="0.1733" style="stop-color:#8C8E90"/>
				<stop  offset="0.2178" style="stop-color:#989A9C"/>
				<stop  offset="0.2671" style="stop-color:#ACAEB0"/>
				<stop  offset="0.3194" style="stop-color:#C9CBCC"/>
				<stop  offset="0.363" style="stop-color:#E6E7E8"/>
				<stop  offset="0.4061" style="stop-color:#CDCED0"/>
				<stop  offset="0.4699" style="stop-color:#ACAEB1"/>
				<stop  offset="0.5284" style="stop-color:#96989A"/>
				<stop  offset="0.5793" style="stop-color:#898B8D"/>
				<stop  offset="0.6168" style="stop-color:#848689"/>
				<stop  offset="0.6596" style="stop-color:#949799"/>
				<stop  offset="0.7481" style="stop-color:#C2C3C6"/>
				<stop  offset="0.8046" style="stop-color:#E2E3E4"/>
				<stop  offset="1" style="stop-color:#939597"/>
			</linearGradient>
			<path fill="url(#SVGID_5_)" d="M65.411,59.115l5.918,5.583c0,0,16.582-18.916,43.958-11.916c0,0,37.043,9.666,32.711,50.333
				c0,0-1.336,19.417-20.668,31.667l4.5,6.5c0,0,15.416-8.083,21.668-27.915c0,0,9.162-21.502-4.834-44.419
				c0,0-9.918-20.334-36.5-24.833C112.164,44.116,86.411,38.115,65.411,59.115z"/>
			
				<linearGradient id="SVGID_6_" gradientUnits="userSpaceOnUse" x1="39.0605" y1="87.374" x2="68.7538" y2="87.374" gradientTransform="matrix(1 0 0 -1 0 201.9902)">
				<stop  offset="0" style="stop-color:#8A8C8E"/>
				<stop  offset="0.2948" style="stop-color:#E6E7E8"/>
				<stop  offset="0.3596" style="stop-color:#C6C8CA"/>
				<stop  offset="0.4239" style="stop-color:#AEB0B2"/>
				<stop  offset="0.4869" style="stop-color:#9D9FA1"/>
				<stop  offset="0.5481" style="stop-color:#939598"/>
				<stop  offset="0.6054" style="stop-color:#909294"/>
				<stop  offset="0.6522" style="stop-color:#949698"/>
				<stop  offset="0.7095" style="stop-color:#9FA1A4"/>
				<stop  offset="0.7723" style="stop-color:#B3B5B7"/>
				<stop  offset="0.8386" style="stop-color:#D0D1D3"/>
				<stop  offset="0.8752" style="stop-color:#E2E3E4"/>
			</linearGradient>
			<path fill="url(#SVGID_6_)" d="M40.995,80.45l7.666,2.167c0,0-10.5,33.637,21.5,59.498l-4,6.667
				C66.161,148.781,30.494,125.426,40.995,80.45z"/>
			
				<linearGradient id="SVGID_7_" gradientUnits="userSpaceOnUse" x1="60.9971" y1="79.7632" x2="143.1636" y2="79.7632" gradientTransform="matrix(1 0 0 -1 0 201.9902)">
				<stop  offset="0" style="stop-color:#FFFFFF"/>
				<stop  offset="0.0204" style="stop-color:#DEDFE1"/>
				<stop  offset="0.0483" style="stop-color:#BCBEC0"/>
				<stop  offset="0.0757" style="stop-color:#A2A4A7"/>
				<stop  offset="0.1018" style="stop-color:#909295"/>
				<stop  offset="0.1264" style="stop-color:#86888A"/>
				<stop  offset="0.1477" style="stop-color:#828487"/>
				<stop  offset="0.1833" style="stop-color:#8C8E91"/>
				<stop  offset="0.2497" style="stop-color:#A7A9AC"/>
				<stop  offset="0.3391" style="stop-color:#D6D7D9"/>
				<stop  offset="0.3675" style="stop-color:#E6E7E8"/>
				<stop  offset="0.5044" style="stop-color:#C2C4C6"/>
				<stop  offset="0.6511" style="stop-color:#909294"/>
				<stop  offset="0.69" style="stop-color:#949698"/>
				<stop  offset="0.7376" style="stop-color:#9FA1A4"/>
				<stop  offset="0.7897" style="stop-color:#B3B5B7"/>
				<stop  offset="0.8448" style="stop-color:#D0D1D3"/>
				<stop  offset="0.8752" style="stop-color:#E2E3E4"/>
			</linearGradient>
			<path fill="url(#SVGID_7_)" d="M69.163,104.95l-8.166,2.131c0,0,7.999,35.535,46.833,32.202c0,0,25.668-1.666,35.334-27.833
				l-7.666-2.833c0,0-9.365,25.5-36.5,22.833C98.997,131.45,75.869,130.496,69.163,104.95z"/>
		</g>
	</g>
</g>
<g id="Layer_2_1_">
	<path fill="none" stroke="#231F20" stroke-width="8" stroke-miterlimit="10" d="M59.864,153.669
		c-6.979-5.171-13.134-11.75-18.031-19.637c-10.784-17.365-13.348-37.66-8.727-56.126"/>
	<path fill="none" stroke="#404041" stroke-width="1.9515" stroke-miterlimit="10" d="M167.834,117.984
		c-4.889,15.256-14.805,28.932-29.117,38.2c-25.02,16.197-56.248,14.229-78.853-2.516"/>
	<path fill="none" stroke="#404041" stroke-width="1.9515" stroke-miterlimit="10" d="M160.411,57.269
		c11.688,18.815,13.717,41.069,7.424,60.715"/>
	<path fill="none" stroke="#404041" stroke-width="1.9515" stroke-miterlimit="10" d="M52.5,127.156
		c-10.039-16.164-11.377-35.426-5.267-52.064"/>
	<path fill="none" stroke="#404041" stroke-width="8" stroke-miterlimit="10" d="M60.244,54.382
		c2.968-3.047,6.313-5.807,10.021-8.206c26.807-17.354,62.313-9.236,79.311,18.135c17.002,27.368,9.048,63.622-17.761,80.979"/>
	<path fill="none" stroke="#404041" stroke-width="1.9515" stroke-miterlimit="10" d="M47.234,75.092
		c2.808-7.643,7.182-14.731,13.01-20.71"/>
	<g>
		<path fill="none" stroke="#231F20" stroke-width="8" stroke-miterlimit="10" d="M73.452,133.265
			c-8.864-6.748-14.625-16.165-17.017-26.346"/>
		<path fill="none" stroke="#231F20" stroke-width="8" stroke-miterlimit="10" d="M143.321,111.876
			c-1.48,4.169-3.575,8.19-6.307,11.93c-14.994,20.529-43.451,24.766-63.562,9.459"/>
		<path fill="none" stroke="#404041" stroke-width="1.9515" stroke-miterlimit="10" d="M127.75,58.909
			c16.447,12.521,22.22,34.24,15.571,52.967"/>
	</g>
	<path fill="none" stroke="#231F20" stroke-width="8" stroke-miterlimit="10" d="M174.376,159.771
		c-31.571,39.738-88.421,47.908-129.648,17.668C1.957,146.064-7.808,85.231,22.923,41.562c3.84-5.458,8.132-10.391,12.786-14.781"/>
	<path fill="none" stroke="#404041" stroke-width="2.1585" stroke-miterlimit="10" d="M194.47,82.625
		c3.949,24.587-1.293,50.713-16.655,72.548c-1.11,1.578-2.258,3.109-3.438,4.598"/>
	<path fill="none" stroke="#404041" stroke-width="2.1585" stroke-miterlimit="10" d="M35.709,26.781
		c32.576-30.735,82.874-34.936,120.298-7.483c21.385,15.686,34.52,38.736,38.463,63.327"/>
</g>
<g id="Layer_3" display="none">
	<g display="inline">
		<path fill="none" stroke="#991C1F" stroke-width="1.8577" stroke-miterlimit="10" d="M79.993,82.05
			c0.875-2.222,2.056-4.365,3.551-6.374c5.299-7.104,13.372-10.917,21.598-11.054"/>
		<path fill="none" stroke="#991C1F" stroke-width="7.6157" stroke-miterlimit="10" d="M132.525,97.524
			c-0.774,3.87-2.398,7.63-4.915,11.003c-9.071,12.167-26.29,14.678-38.456,5.605c-10.161-7.573-13.588-20.829-9.161-32.083"/>
	</g>
</g>
</svg>
